<svg width="192" height="192" viewBox="0 0 192 192" fill="none" xmlns="http://www.w3.org/2000/svg">
  <!-- Background with gradient -->
  <defs>
    <linearGradient id="bgGradient192" x1="0%" y1="0%" x2="100%" y2="100%">
      <stop offset="0%" style="stop-color:#0F172A;stop-opacity:1" />
      <stop offset="50%" style="stop-color:#1E293B;stop-opacity:1" />
      <stop offset="100%" style="stop-color:#334155;stop-opacity:1" />
    </linearGradient>
    <linearGradient id="codeGradient192" x1="0%" y1="0%" x2="100%" y2="100%">
      <stop offset="0%" style="stop-color:#10B981;stop-opacity:1" />
      <stop offset="33%" style="stop-color:#3B82F6;stop-opacity:1" />
      <stop offset="66%" style="stop-color:#8B5CF6;stop-opacity:1" />
      <stop offset="100%" style="stop-color:#EC4899;stop-opacity:1" />
    </linearGradient>
    <linearGradient id="bracketGradient192" x1="0%" y1="0%" x2="100%" y2="100%">
      <stop offset="0%" style="stop-color:#F59E0B;stop-opacity:1" />
      <stop offset="50%" style="stop-color:#F97316;stop-opacity:1" />
      <stop offset="100%" style="stop-color:#EF4444;stop-opacity:1" />
    </linearGradient>
    <filter id="shadow192">
      <feDropShadow dx="0" dy="4" stdDeviation="8" flood-opacity="0.3"/>
    </filter>
  </defs>
  
  <!-- Dark background -->
  <rect width="192" height="192" rx="36" fill="url(#bgGradient192)" filter="url(#shadow192)"/>
  
  <!-- Code brackets -->
  <path d="M48 60L36 72L48 84" stroke="url(#bracketGradient192)" stroke-width="12" stroke-linecap="round" stroke-linejoin="round"/>
  <path d="M144 108L156 120L144 132" stroke="url(#bracketGradient192)" stroke-width="12" stroke-linecap="round" stroke-linejoin="round"/>
  
  <!-- Code lines -->
  <rect x="60" y="48" width="48" height="9" rx="3" fill="url(#codeGradient192)"/>
  <rect x="60" y="66" width="72" height="9" rx="3" fill="url(#codeGradient192)" opacity="0.9"/>
  <rect x="60" y="84" width="36" height="9" rx="3" fill="url(#codeGradient192)" opacity="0.8"/>
  
  <rect x="84" y="108" width="48" height="9" rx="3" fill="url(#codeGradient192)"/>
  <rect x="84" y="126" width="60" height="9" rx="3" fill="url(#codeGradient192)" opacity="0.9"/>
  <rect x="84" y="144" width="24" height="9" rx="3" fill="url(#codeGradient192)" opacity="0.8"/>
  
  <!-- Terminal cursor -->
  <rect x="120" y="84" width="9" height="48" rx="2" fill="#10B981">
    <animate attributeName="opacity" values="1;0;1" dur="1s" repeatCount="indefinite"/>
  </rect>
  
  <!-- Decorative elements -->
  <circle cx="96" cy="48" r="6" fill="url(#codeGradient192)" opacity="0.6"/>
  <circle cx="48" cy="144" r="4" fill="url(#bracketGradient192)" opacity="0.8"/>
  <circle cx="144" cy="48" r="4" fill="url(#bracketGradient192)" opacity="0.8"/>
</svg>
