<svg width="32" height="32" viewBox="0 0 32 32" fill="none" xmlns="http://www.w3.org/2000/svg">
  <!-- Background with gradient -->
  <defs>
    <linearGradient id="bgGradient" x1="0%" y1="0%" x2="100%" y2="100%">
      <stop offset="0%" style="stop-color:#1E293B;stop-opacity:1" />
      <stop offset="100%" style="stop-color:#334155;stop-opacity:1" />
    </linearGradient>
    <linearGradient id="codeGradient" x1="0%" y1="0%" x2="100%" y2="100%">
      <stop offset="0%" style="stop-color:#10B981;stop-opacity:1" />
      <stop offset="50%" style="stop-color:#3B82F6;stop-opacity:1" />
      <stop offset="100%" style="stop-color:#8B5CF6;stop-opacity:1" />
    </linearGradient>
    <linearGradient id="bracketGradient" x1="0%" y1="0%" x2="100%" y2="100%">
      <stop offset="0%" style="stop-color:#F59E0B;stop-opacity:1" />
      <stop offset="100%" style="stop-color:#EF4444;stop-opacity:1" />
    </linearGradient>
  </defs>
  
  <!-- Dark background -->
  <rect width="32" height="32" rx="6" fill="url(#bgGradient)"/>
  
  <!-- Code brackets -->
  <path d="M8 10L6 12L8 14" stroke="url(#bracketGradient)" stroke-width="2" stroke-linecap="round" stroke-linejoin="round"/>
  <path d="M24 18L26 20L24 22" stroke="url(#bracketGradient)" stroke-width="2" stroke-linecap="round" stroke-linejoin="round"/>
  
  <!-- Code lines -->
  <rect x="10" y="8" width="8" height="1.5" rx="0.5" fill="url(#codeGradient)"/>
  <rect x="10" y="11" width="12" height="1.5" rx="0.5" fill="url(#codeGradient)" opacity="0.8"/>
  <rect x="10" y="14" width="6" height="1.5" rx="0.5" fill="url(#codeGradient)" opacity="0.6"/>
  
  <rect x="14" y="18" width="8" height="1.5" rx="0.5" fill="url(#codeGradient)"/>
  <rect x="14" y="21" width="10" height="1.5" rx="0.5" fill="url(#codeGradient)" opacity="0.8"/>
  <rect x="14" y="24" width="4" height="1.5" rx="0.5" fill="url(#codeGradient)" opacity="0.6"/>
  
  <!-- Terminal cursor -->
  <rect x="20" y="14" width="1.5" height="8" rx="0.25" fill="#10B981">
    <animate attributeName="opacity" values="1;0;1" dur="1s" repeatCount="indefinite"/>
  </rect>
</svg>
